<?xml version="1.0" encoding="UTF-8"?>
<svg id="Layer_1" xmlns="http://www.w3.org/2000/svg" version="1.1" viewBox="0 0 668.44 304">
  <!-- Generator: Adobe Illustrator 29.8.3, SVG Export Plug-In . SVG Version: 2.1.1 Build 3)  -->
  <defs>
    <style>
      .st0 {
        fill: #fff;
      }

      .st1 {
        fill: #151943;
      }
    </style>
  </defs>
  <rect class="st1" x="-5.78" y="-5.78" width="678.67" height="317.33"/>
  <g>
    <g>
      <path class="st0" d="M254.01,229.28c0,1.39-.24,2.43-.71,3.1s-1.15,1.01-2.02,1.01c-.17,0-.33-.01-.48-.04-.15-.02-.29-.06-.41-.11v-1.02c.27.16.57.23.9.23.61,0,1.06-.26,1.34-.78.28-.52.42-1.32.42-2.4v-7.25h.96v7.25Z"/>
      <path class="st0" d="M257.1,229.4c0,.49.07.93.18,1.32.12.39.28.72.5.99.22.27.48.48.79.62s.66.21,1.05.21c.83,0,1.62-.31,2.36-.94v.98c-.71.55-1.56.82-2.57.82-.5,0-.95-.09-1.35-.28s-.75-.46-1.03-.81c-.28-.36-.5-.79-.66-1.31s-.23-1.11-.23-1.78c0-.6.08-1.15.25-1.66.17-.51.4-.95.7-1.32.3-.37.65-.66,1.06-.87s.86-.32,1.34-.32.9.09,1.26.27c.37.18.67.44.92.77.25.33.44.74.57,1.22.13.48.2,1.01.2,1.61v.5h-5.34ZM261.49,228.52c-.01-.83-.2-1.48-.55-1.93-.35-.46-.84-.69-1.47-.69-.31,0-.6.06-.87.18s-.5.29-.7.52-.37.5-.5.83c-.13.32-.22.69-.28,1.09h4.37Z"/>
      <path class="st0" d="M268.12,226.25c-.22-.17-.5-.26-.84-.26-.25,0-.46.05-.65.15-.19.1-.35.24-.49.41-.14.17-.26.37-.36.6-.1.23-.18.46-.24.71-.06.24-.1.49-.13.74s-.04.49-.04.71v3.91h-.92v-7.98h.92v1.71h.03c.09-.29.2-.55.33-.78.13-.23.29-.43.46-.59s.36-.28.57-.36c.2-.08.42-.12.65-.12.15,0,.28,0,.4.03.12.02.22.05.32.09v1.04Z"/>
      <path class="st0" d="M274.49,233.21v-1.36h-.03c-.5,1.03-1.28,1.54-2.33,1.54-1.76,0-2.64-1.16-2.64-3.48v-4.69h.92v4.51c0,.96.16,1.66.47,2.12s.8.69,1.45.69c.32,0,.61-.07.87-.2.26-.13.49-.32.68-.56.19-.24.34-.53.44-.87s.16-.71.16-1.12v-4.56h.92v7.98h-.92Z"/>
      <path class="st0" d="M277.57,231.77c.14.12.29.23.45.32s.33.17.51.24c.17.07.35.12.52.15.18.03.34.05.5.05,1.1,0,1.65-.45,1.65-1.33,0-.2-.04-.38-.12-.53-.08-.15-.19-.28-.33-.41-.14-.12-.32-.23-.52-.34-.2-.1-.43-.21-.69-.33-.34-.15-.64-.3-.88-.46-.25-.16-.45-.33-.61-.51-.16-.18-.28-.39-.35-.61-.08-.22-.12-.47-.12-.75,0-.35.07-.67.21-.94.14-.28.33-.51.57-.7.24-.19.52-.34.83-.44.31-.1.65-.15.99-.15.64,0,1.2.13,1.67.39v1.05c-.55-.38-1.15-.58-1.79-.58-.23,0-.44.03-.63.09-.19.06-.35.15-.49.27-.14.11-.24.25-.31.41-.07.16-.11.33-.11.53s.03.37.09.52c.06.15.15.28.27.4.12.12.28.23.48.34.2.11.43.23.71.35.36.16.66.31.92.46.26.15.47.32.64.5.17.18.29.38.38.6.08.22.12.48.12.77,0,.36-.07.68-.21.96-.14.28-.33.52-.57.71s-.53.34-.86.44c-.33.1-.68.15-1.07.15-.75,0-1.37-.17-1.88-.51v-1.12Z"/>
      <path class="st0" d="M288.44,233.21v-1.42h-.03c-.24.51-.57.9-.99,1.19-.42.28-.89.42-1.41.42-.36,0-.68-.06-.96-.16s-.53-.26-.73-.46c-.2-.2-.35-.44-.46-.72-.11-.28-.16-.59-.16-.93,0-.72.21-1.3.62-1.73s1.04-.71,1.88-.84l2.24-.35c0-1.53-.55-2.3-1.65-2.3-.86,0-1.66.34-2.4,1.02v-1.09c.15-.12.33-.23.52-.32.19-.1.4-.18.62-.25.22-.07.44-.12.67-.16.23-.04.45-.06.67-.06.82,0,1.44.25,1.87.75.42.5.63,1.24.63,2.23v5.19h-.92ZM286.54,229.33c-.33.05-.62.12-.85.2s-.43.18-.58.32-.27.3-.34.49c-.07.2-.11.44-.11.72,0,.21.03.41.1.59.07.18.17.34.3.47.13.13.29.23.48.31.19.07.41.11.65.11.33,0,.63-.07.9-.2s.51-.32.71-.56c.2-.24.36-.52.47-.86.11-.33.17-.69.17-1.08v-.79l-1.91.29Z"/>
      <path class="st0" d="M291.78,233.21v-11.82h.92v11.82h-.92Z"/>
      <path class="st0" d="M295.72,229.4c0,.49.07.93.18,1.32.12.39.28.72.5.99.22.27.48.48.79.62s.66.21,1.05.21c.83,0,1.62-.31,2.36-.94v.98c-.71.55-1.56.82-2.57.82-.5,0-.95-.09-1.35-.28s-.75-.46-1.03-.81c-.28-.36-.5-.79-.66-1.31s-.23-1.11-.23-1.78c0-.6.08-1.15.25-1.66.17-.51.4-.95.7-1.32.3-.37.65-.66,1.06-.87s.86-.32,1.34-.32.9.09,1.26.27c.37.18.67.44.92.77.25.33.44.74.57,1.22.13.48.2,1.01.2,1.61v.5h-5.34ZM300.11,228.52c-.01-.83-.2-1.48-.55-1.93-.35-.46-.84-.69-1.47-.69-.31,0-.6.06-.87.18s-.5.29-.7.52-.37.5-.5.83c-.13.32-.22.69-.28,1.09h4.37Z"/>
      <path class="st0" d="M312.36,233.21v-4.69c0-.48-.03-.88-.1-1.21-.07-.33-.17-.6-.31-.81s-.32-.36-.54-.45c-.22-.09-.48-.14-.78-.14-.27,0-.52.07-.77.21-.24.14-.45.33-.63.57s-.32.53-.43.85c-.1.33-.16.68-.16,1.06v4.62h-.92v-4.8c0-1.67-.59-2.51-1.78-2.51-.27,0-.53.07-.77.2-.24.13-.44.32-.62.56-.18.24-.31.53-.41.86-.1.34-.15.71-.15,1.11v4.58h-.92v-7.98h.92v1.29h.03c.52-.99,1.28-1.48,2.27-1.48.26,0,.5.04.74.13.23.09.44.21.62.36s.34.34.47.55.23.45.3.7c.26-.57.6-1,1.01-1.29.42-.3.89-.44,1.41-.44,1.62,0,2.43,1.08,2.43,3.24v4.93h-.92Z"/>
      <path class="st0" d="M326.7,233.21v-5.23h-5.64v5.23h-.96v-11.18h.96v5.01h5.64v-5.01h.96v11.18h-.96Z"/>
      <path class="st0" d="M330.82,229.4c0,.49.07.93.18,1.32.12.39.28.72.5.99.22.27.48.48.79.62s.66.21,1.05.21c.83,0,1.62-.31,2.36-.94v.98c-.71.55-1.56.82-2.57.82-.5,0-.95-.09-1.35-.28s-.75-.46-1.03-.81c-.28-.36-.5-.79-.66-1.31s-.23-1.11-.23-1.78c0-.6.08-1.15.25-1.66.17-.51.4-.95.7-1.32.3-.37.65-.66,1.06-.87s.86-.32,1.34-.32.9.09,1.26.27c.37.18.67.44.92.77.25.33.44.74.57,1.22.13.48.2,1.01.2,1.61v.5h-5.34ZM335.21,228.52c-.01-.83-.2-1.48-.55-1.93-.35-.46-.84-.69-1.47-.69-.31,0-.6.06-.87.18s-.5.29-.7.52-.37.5-.5.83c-.13.32-.22.69-.28,1.09h4.37Z"/>
      <path class="st0" d="M341.84,226.25c-.22-.17-.5-.26-.84-.26-.25,0-.46.05-.65.15-.19.1-.35.24-.49.41-.14.17-.26.37-.36.6-.1.23-.18.46-.24.71-.06.24-.1.49-.13.74s-.04.49-.04.71v3.91h-.92v-7.98h.92v1.71h.03c.09-.29.2-.55.33-.78.13-.23.29-.43.46-.59s.36-.28.57-.36c.2-.08.42-.12.65-.12.15,0,.28,0,.4.03.12.02.22.05.32.09v1.04Z"/>
      <path class="st0" d="M343.82,223.2c-.18,0-.33-.07-.46-.2s-.2-.31-.2-.51.07-.37.2-.5.28-.2.46-.2c.09,0,.18.02.26.05.08.03.15.08.21.14.06.06.11.14.14.22.04.09.05.18.05.28,0,.1-.02.19-.05.28-.03.09-.08.17-.14.23-.06.06-.13.12-.21.15-.08.04-.17.06-.26.06ZM343.37,233.21v-7.98h.92v7.98h-.92Z"/>
      <path class="st0" d="M350.04,233.11c-.32.17-.66.26-1.04.26-1.19,0-1.79-.74-1.79-2.23v-5.04h-1.3v-.87h1.3v-2.01l.92-.33v2.34h1.91v.87h-1.91v4.89c0,.54.08.93.25,1.17s.44.36.83.36c.29,0,.57-.09.83-.28v.88Z"/>
      <path class="st0" d="M356.02,233.21v-1.42h-.03c-.24.51-.57.9-.99,1.19-.42.28-.89.42-1.41.42-.36,0-.68-.06-.96-.16-.29-.11-.53-.26-.73-.46s-.35-.44-.46-.72c-.11-.28-.16-.59-.16-.93,0-.72.21-1.3.62-1.73.41-.43,1.04-.71,1.88-.84l2.24-.35c0-1.53-.55-2.3-1.65-2.3-.86,0-1.66.34-2.4,1.02v-1.09c.15-.12.33-.23.52-.32.2-.1.4-.18.62-.25.22-.07.44-.12.67-.16.23-.04.45-.06.67-.06.82,0,1.44.25,1.87.75.42.5.63,1.24.63,2.23v5.19h-.92ZM354.11,229.33c-.33.05-.62.12-.85.2-.24.08-.43.18-.59.32-.15.13-.27.3-.34.49-.07.2-.11.44-.11.72,0,.21.03.41.1.59.07.18.17.34.3.47.13.13.29.23.48.31.19.07.41.11.65.11.33,0,.63-.07.9-.2.28-.14.51-.32.71-.56.2-.24.36-.52.47-.86.11-.33.17-.69.17-1.08v-.79l-1.91.29Z"/>
      <path class="st0" d="M365.47,232.59c0,1.48-.31,2.58-.93,3.29-.62.72-1.58,1.07-2.88,1.07-.81,0-1.57-.2-2.3-.59v-1.01c.8.48,1.57.73,2.3.73,1.93,0,2.89-1.1,2.89-3.31v-.96h-.03c-.57,1.05-1.43,1.57-2.6,1.57-.46,0-.87-.09-1.25-.27-.38-.18-.7-.44-.97-.79-.27-.34-.48-.76-.63-1.25-.15-.49-.22-1.05-.22-1.66,0-.65.08-1.25.24-1.79s.39-1,.68-1.38c.29-.39.65-.68,1.06-.89.42-.21.88-.32,1.4-.32,1.04,0,1.81.46,2.29,1.37h.03v-1.18h.92v7.37ZM364.54,228.36c0-.33-.06-.65-.17-.94-.11-.3-.26-.56-.46-.78-.2-.22-.43-.4-.7-.53-.27-.13-.57-.2-.9-.2-.39,0-.73.08-1.04.24s-.58.39-.79.69c-.22.3-.39.66-.51,1.08-.12.42-.18.9-.18,1.43,0,.49.06.93.17,1.33s.27.73.47,1.01c.2.28.45.49.73.64.29.15.61.23.96.23s.7-.07,1-.21.55-.34.77-.59c.21-.25.37-.55.49-.89.12-.34.17-.71.17-1.1v-1.38Z"/>
      <path class="st0" d="M368.48,229.4c0,.49.06.93.18,1.32.11.39.28.72.5.99.22.27.48.48.79.62s.66.21,1.05.21c.83,0,1.62-.31,2.36-.94v.98c-.71.55-1.56.82-2.57.82-.5,0-.95-.09-1.35-.28s-.75-.46-1.03-.81c-.28-.36-.5-.79-.66-1.31-.15-.52-.23-1.11-.23-1.78,0-.6.08-1.15.25-1.66.17-.51.4-.95.7-1.32.3-.37.65-.66,1.06-.87s.86-.32,1.34-.32.9.09,1.26.27c.37.18.67.44.92.77.25.33.44.74.57,1.22.13.48.2,1.01.2,1.61v.5h-5.34ZM372.87,228.52c-.01-.83-.2-1.48-.55-1.93s-.84-.69-1.47-.69c-.31,0-.6.06-.87.18-.27.12-.5.29-.7.52-.2.23-.37.5-.5.83s-.22.69-.28,1.09h4.37Z"/>
      <path class="st0" d="M385.86,233.21l-1.56-3.2c-.15-.32-.3-.58-.45-.79-.14-.21-.29-.38-.45-.51-.15-.13-.32-.22-.5-.27-.18-.05-.37-.08-.59-.08h-1.14v4.86h-.96v-11.18h2.98c.39,0,.77.06,1.13.19.36.13.69.31.97.55s.51.55.68.92c.17.37.26.8.26,1.29,0,.39-.06.76-.17,1.09-.11.33-.27.63-.47.88-.2.26-.45.48-.74.66-.29.18-.62.31-.99.4v.03c.14.06.27.14.38.24.11.1.23.22.34.36.11.14.22.3.32.48.11.18.22.39.33.62l1.74,3.46h-1.13ZM381.18,222.98v4.42h1.72c.35,0,.66-.06.95-.16s.53-.26.74-.47.36-.45.48-.73.17-.61.17-.97c0-.65-.19-1.16-.58-1.53-.39-.37-.95-.56-1.68-.56h-1.8Z"/>
      <path class="st0" d="M389.08,229.4c0,.49.06.93.18,1.32.11.39.28.72.5.99.22.27.48.48.79.62s.66.21,1.05.21c.83,0,1.62-.31,2.36-.94v.98c-.71.55-1.56.82-2.57.82-.5,0-.95-.09-1.35-.28s-.75-.46-1.03-.81c-.28-.36-.5-.79-.66-1.31-.15-.52-.23-1.11-.23-1.78,0-.6.08-1.15.25-1.66.17-.51.4-.95.7-1.32.3-.37.65-.66,1.06-.87s.86-.32,1.34-.32.9.09,1.26.27c.37.18.67.44.92.77.25.33.44.74.57,1.22.13.48.2,1.01.2,1.61v.5h-5.34ZM393.47,228.52c-.01-.83-.2-1.48-.55-1.93s-.84-.69-1.47-.69c-.31,0-.6.06-.87.18-.27.12-.5.29-.7.52-.2.23-.37.5-.5.83s-.22.69-.28,1.09h4.37Z"/>
      <path class="st0" d="M400.69,233.21v-1.42h-.03c-.24.51-.57.9-.99,1.19-.42.28-.89.42-1.41.42-.36,0-.68-.06-.96-.16-.29-.11-.53-.26-.73-.46s-.35-.44-.46-.72-.16-.59-.16-.93c0-.72.21-1.3.62-1.73.41-.43,1.04-.71,1.88-.84l2.24-.35c0-1.53-.55-2.3-1.65-2.3-.86,0-1.66.34-2.4,1.02v-1.09c.15-.12.33-.23.52-.32.2-.1.4-.18.62-.25.22-.07.44-.12.67-.16.23-.04.45-.06.67-.06.82,0,1.44.25,1.87.75.42.5.63,1.24.63,2.23v5.19h-.92ZM398.78,229.33c-.33.05-.62.12-.85.2-.24.08-.43.18-.59.32-.15.13-.27.3-.34.49-.07.2-.11.44-.11.72,0,.21.03.41.1.59.07.18.17.34.3.47.13.13.29.23.48.31.19.07.41.11.65.11.33,0,.63-.07.9-.2.28-.14.51-.32.71-.56.2-.24.36-.52.47-.86.11-.33.17-.69.17-1.08v-.79l-1.91.29Z"/>
      <path class="st0" d="M404.03,233.21v-11.82h.92v11.82h-.92Z"/>
      <path class="st0" d="M410.7,233.11c-.32.17-.66.26-1.04.26-1.19,0-1.79-.74-1.79-2.23v-5.04h-1.3v-.87h1.3v-2.01l.92-.33v2.34h1.91v.87h-1.91v4.89c0,.54.08.93.25,1.17.16.24.44.36.83.36.29,0,.57-.09.83-.28v.88Z"/>
      <path class="st0" d="M414.56,234.66c-.29.78-.62,1.36-1,1.73-.37.38-.83.57-1.36.57-.26,0-.49-.03-.67-.1v-.94c.11.04.21.07.32.09.11.02.22.03.33.03.3,0,.57-.1.79-.31.22-.21.42-.52.58-.93l.64-1.64-2.84-7.94h1.03l2.11,6.32c.03.08.06.18.08.28.03.11.05.21.08.32h.04c.02-.09.05-.18.07-.27.02-.09.05-.19.09-.3l2.24-6.35h.97l-3.5,9.43Z"/>
    </g>
    <g>
      <path class="st0" d="M325.93,67.27h-9.97v.45c5.44,0,9.97,4.53,9.97,9.96v32.17c0,10.86-7.6,13.46-16.22,14.82h-13.31v.58h13.38c8.11.93,16.14,4.11,16.14,14.93v31.71c0,5.43-4.53,9.96-9.97,9.96v.45h36.71v-.45c-5.44,0-9.97-4.53-9.97-9.96v-94.21c0-5.43,4.53-9.96,9.97-9.96v-.45h-26.75Z"/>
      <path class="st0" d="M252.71,67.5c5.44,0,9.96,4.53,9.96,9.96v104.62c0,15.4-5.44,27.63-11.78,27.63-.45,0-.45.45-.45.45q0,.45.45.45c15.85,0,28.08-13.13,28.08-28.53v-104.62c0-5.43,4.53-9.96,9.97-9.96v-.45h-36.24v.45Z"/>
      <path class="st0" d="M417.54,181.63c-5.44,0-9.97-4.53-9.97-9.96v-18.57c0-14.4-10.74-26.31-24.65-28.69,15.4-1.55,24.65-14.76,24.65-28.38,0-15.85-12.68-28.99-28.99-28.99l-9.09.29h-3.89v.58h11.68l1.3.04c7.25,0,12.68,12.68,12.68,28.08,0,11.32-1.81,26.72-14.49,28.53h0c12.68,2.26,14.49,18.12,14.49,28.53v18.57c0,5.75,4.66,10.42,10.42,10.42h16.31c0-.45-.45-.45-.45-.45Z"/>
    </g>
  </g>
</svg>