<?xml version="1.0" encoding="UTF-8"?>
<svg id="Layer_1" xmlns="http://www.w3.org/2000/svg" version="1.1" viewBox="0 0 668.44 304">
  <!-- Generator: Adobe Illustrator 29.8.3, SVG Export Plug-In . SVG Version: 2.1.1 Build 3)  -->
  <defs>
    <style>
      .st0 {
        fill: #ad8548;
      }
    </style>
  </defs>
  <path class="st0" d="M325.93,81.27h-9.97v.45c5.44,0,9.97,4.53,9.97,9.96v32.17c0,10.86-7.6,13.46-16.22,14.82h-13.31v.58h13.38c8.11.93,16.14,4.11,16.14,14.93v31.71c0,5.43-4.53,9.96-9.97,9.96v.45h36.71v-.45c-5.44,0-9.97-4.53-9.97-9.96v-94.21c0-5.43,4.53-9.96,9.97-9.96v-.45h-26.75Z"/>
  <path class="st0" d="M252.71,81.5c5.44,0,9.96,4.53,9.96,9.96v104.62c0,15.4-5.44,27.63-11.78,27.63-.45,0-.45.45-.45.45q0,.45.45.45c15.85,0,28.08-13.13,28.08-28.53v-104.62c0-5.43,4.53-9.96,9.97-9.96v-.45h-36.24v.45Z"/>
  <path class="st0" d="M417.54,195.63c-5.44,0-9.97-4.53-9.97-9.96v-18.57c0-14.4-10.74-26.31-24.65-28.69,15.4-1.55,24.65-14.76,24.65-28.38,0-15.85-12.68-28.99-28.99-28.99l-9.09.29h-3.89v.58h11.68l1.3.04c7.25,0,12.68,12.68,12.68,28.08,0,11.32-1.81,26.72-14.49,28.53h0c12.68,2.26,14.49,18.12,14.49,28.53v18.57c0,5.75,4.66,10.42,10.42,10.42h16.31c0-.45-.45-.45-.45-.45Z"/>
</svg>